# xmcd CD database file
#
# Track frame offsets:
#	150
#	26750
#	55351
#	88881
#	94229
#	130017
#	170384
#
# Disc length: 2964 seconds
#
# Revision: 0
# Processed by: cddbd v1.5.1PL0 Copyright (c) Steve Scherf et al.
# Submitted via: CDex 1.51
#
DISCID=590b9207
DTITLE=altura bros - nomad
DYEAR=2002
DGENRE=Jazz
TTITLE0=Nomad
TTITLE1=New Ballad
TTITLE2=Solar
TTITLE3=Intro
TTITLE4=Maitri
TTITLE5=I'll be seeing you
TTITLE6=Pray for Rain
EXTD=YEAR: 2002
EXTT0=
EXTT1=
EXTT2=
EXTT3=
EXTT4=
EXTT5=
EXTT6=
PLAYORDER=
